# xmcd CD database file
#
# Track frame offsets:
#	150
#	20859
#	37256
#	52856
#	68872
#	88574
#	107624
#	127469
#	143903
#	162003
#	179534
#
# Disc length: 2574 seconds
#
# Revision: 0
# Processed by: cddbd v1.5.2PL0 Copyright (c) Steve Scherf et al.
# Submitted via: CDex 1.79
#
DISCID=9f0a0c0b
DTITLE=Stan Martin - Distilled Influences
DYEAR=2012
DGENRE=Country
TTITLE0=Should've Been Gone
TTITLE1=Mr. Lonely Me
TTITLE2=Goodbye Houston
TTITLE3=He's Not There With You
TTITLE4=I Do
TTITLE5=Walk Away
TTITLE6=You`ve Got Me Singing The Blues
TTITLE7=Right Now
TTITLE8=Wanting For Love
TTITLE9=You Let Me Down
TTITLE10=Bluebird
EXTD=YEAR: 2012
EXTT0=
EXTT1=
EXTT2=
EXTT3=
EXTT4=
EXTT5=
EXTT6=
EXTT7=
EXTT8=
EXTT9=
EXTT10=
PLAYORDER=
